<?xml version="1.0" encoding="utf-8"?>
<!-- Generator: Adobe Illustrator 25.1.0, SVG Export Plug-In . SVG Version: 6.00 Build 0)  -->
<svg version="1.1" id="Ebene_1" xmlns="http://www.w3.org/2000/svg" xmlns:xlink="http://www.w3.org/1999/xlink" x="0px" y="0px"
	 viewBox="0 0 857.2 398" style="enable-background:new 0 0 857.2 398;" xml:space="preserve">
<style type="text/css">
	.st0{fill:#2951C7;}
	.st1{fill:#27C4F4;}
	.st2{fill:#C8CDD0;}
</style>
<g id="grafix">
	<path class="st0" d="M76.3,296c7.2,0,14.4,0,21.6,0.1c1.2,0,2.4,0,3.6,0c1,0,1.9,0,2.9,0c7.1,0.1,14.2,0.2,21.2,0.2
		c1.1,0,2.2-0.4,3.3-0.6c0-8.8,0-17.5,0-26.6c-0.9-0.2-1.9-0.4-3.4-0.8c7.3-9.8,14.4-19.2,21.6-28.7c7.2-9.5,14.4-19,21.6-28.6
		c-14.2-18.7-28.5-37.4-43.1-56.6c7.7,0,14.7,0,21.8,0c0.8-6.2,0.7-11.4-4.8-15.8c-5.1-4.1-9.2-9.3-13.9-13.9
		c-0.9-0.9-2.4-1.7-3.6-1.7c-16.7-0.1-33.5-0.1-50.1-0.1c-1.4,3.4-2.6,6.6-4,10.1c9.8,10.1,20.1,20.6,30.2,31
		c-13.3,33.3-26.5,66.4-39.7,99.4c-3.2,0-6.3,0-10.1,0c13.4-33.2,26.6-66,39.7-98.8c0.4,0,0.7,0,1.1,0c-0.9-1.1-1.6-2.2-2.6-3.2
		c-7-7.2-14.1-14.3-21.1-21.5c-1.3-1.3-2.1-1.7-4.1-0.3c-9.6,6.8-21.5,6.5-30.4-0.8c-6.6-5.4-10.6-15.5-7.3-25.8
		c3-9.3,11.5-15.9,21-16.4c6.5-0.3,9.1,0.3,17.4,4.6c16.8-17,33.6-34,50.5-51c-8.1-9.7-9.5-19.7-4.3-28.9c6.3-11,20.5-15.3,31.9-9.6
		c11.8,5.9,16.8,19.9,11.3,31.5c-5.4,11.5-19.2,16.8-31,12c-1.8-0.8-2.9-0.8-4.4,0.7c-16.3,16.6-32.6,33.2-48.9,49.8
		c-0.2,0.2-0.2,0.4-0.3,0.5c1.4,3.3,2.8,6.6,4.5,10.4c0.8,0,2.1,0,3.3,0c16.1,0,32.3-0.1,48.4,0.1c1.9,0,4.2,0.9,5.6,2.2
		c6.6,6.4,13,13,19.2,19.8c1.5,1.6,2.6,4.4,2.4,6.5c-0.8,6.9,1.7,12.1,5.9,17.4c12.4,15.8,24.4,32,36.8,48.4
		c-3.8,4.9-7.7,10-11.5,15.1c-10.4,13.5-20.8,27-31.1,40.5c-1.3,1.7-2.7,2.3-4.8,2.3c-4.3-0.2-8.6-0.1-13.3-0.1
		c0,9.4-0.1,18.5,0.1,27.7c0,1.2,1.4,2.4,2.3,3.4c9.3,9.3,18.6,18.5,27.9,27.8c1,1,1.5,2.3,2.3,3.4c-1.3,1.1-2.6,2.1-3.9,3.2
		c-0.7-0.5-1.5-0.8-2-1.4c-9.3-9.3-18.6-18.5-27.8-27.9c-1.7-1.8-3.4-2.6-5.9-2.5c-17.4,0.1-34.9,0-52.3,0
		C76.3,300.4,76.3,298.2,76.3,296z M49.6,138.6c8.5,0.6,18.6-7.8,18.7-17.8c0.1-10.1-7.3-17.8-17.6-18.1c-10-0.3-18.3,7.5-18.6,17.3
		C31.9,130.4,39.8,138.4,49.6,138.6z M150.6,33.3c0-9.9-8-17.9-18.1-17.8c-10,0-17.9,7.7-17.9,17.5c0,9.9,8.2,18,18.1,17.9
		C142.8,50.8,150.6,43.1,150.6,33.3z"/>
	<path class="st1" d="M224.3,37.9c5.8,6,11.6,12,17.4,18c1.4,1.5,2.6,1.8,4.7,0.9c10-4.4,19.7-3.2,27.9,3.8c5,4.3,7.2,10.2,7.4,17.1
		c0.4,10.6-8,20.5-17.3,23.1c-6.9,2-13.5,1.1-19.6-2.7c-1.8-1.1-3.1-1.6-4.9,0.3c-11.4,11.4-23,22.6-34.5,33.8
		c-2.8,2.7-5.6,5.5-8.1,8.4c-1,1.1-1.2,2.9-1.7,4.4c-0.1,0.3,0,0.7,0,1.1c-1.4,7.7,2.1,13.6,6.8,19.5c10.7,13,20.9,26.5,31.3,39.7
		c1.4,1.8,3,3.6,4.4,5.2c-7.8,10.2-15.6,20.3-23.3,30.4c-3.7,4.9-7.3,9.9-11.2,14.6c-1.5,1.8-1.1,2.7,0.3,4.1
		c14.5,14.4,28.9,28.8,43.3,43.3c2.2,2.2,3.7,2.2,6.4,0.6c11.4-6.9,26.5-3.1,33.1,8c6.9,11.5,3,26.4-8.6,33.2
		c-11.1,6.4-26.4,2.6-32.8-8.4c-4.4-7.5-4.2-15.4-0.6-23.2c0.9-2,0.7-3.1-0.8-4.6c-14.2-14-28.3-28.1-42.5-42.1c-1-1-2.1-1.9-3-2.7
		c-0.6,0.3-0.9,0.3-1,0.5c-3,5.5-8.1,5.3-13.4,5.1c-6.1-0.2-12.2-0.1-18.9-0.1c0.7-1.2,1-2.1,1.5-2.7c13.5-17.4,27-34.8,40.6-52.1
		c2-2.5,1.6-4-0.2-6.4c-13.2-17-26.2-34.2-39.2-51.3c-0.4-0.5-0.6-1-1.1-1.9c1.1-0.1,2-0.3,2.8-0.3c5.3,0,10.6-0.1,15.9,0.1
		c2.5,0.1,4.1-0.6,3.6-3.3c-1.6-8.4,2.6-14.1,8.5-19.6c12.7-12.1,24.9-24.7,37.4-37c2-1.9,2.4-3.5,1.1-6.2c-3.8-7.8-3.2-15.7,1.4-23
		c1.5-2.3,1.1-3.7-0.7-5.4c-5.7-5.6-11.3-11.3-16.9-17C221.3,41.2,222.8,39.5,224.3,37.9z M257.7,60.6c-8.7-0.9-17.6,7-17.6,17.4
		c0,10.7,9.3,18.2,17.8,18c7.9-0.2,18.6-7.2,17.9-19.3C275.3,69.4,266.7,59.4,257.7,60.6z M266,306.3c-9.9-0.1-17.8,7.7-17.8,17.6
		c0,9.9,7.7,17.7,17.7,17.8c9.7,0.1,18.2-8.3,18.2-17.9C284.1,314.3,275.9,306.4,266,306.3z"/>
	<path class="st2" d="M164.3,334.4c1.3-1.1,2.6-2.1,3.9-3.2c0.8,0.4,1.8,0.6,2.4,1.2c5.5,5.5,11,11,16.3,16.6c1.9,2,3.7,2.5,6.4,1.9
		c9.9-2.2,20.8,3.2,25.6,12.5c4.8,9.3,2.8,21.4-4.8,28c-15.8,13.9-36.5,3.9-39.8-11.7c-0.5-2.2-1.6-3-4-2.9
		c-12.2,0.1-24.3,0-36.5,0.2c-3.2,0.1-5.2-1.1-7.1-3.3c-1.9-2.2-3.8-4.3-5.8-6.3c-15.6-15.6-31.2-31.3-46.8-46.9
		c-0.3-0.3-0.5-0.5-0.8-0.8c-3.5-3.8-3.5-3.8-7.8-0.9c-11.4,7.5-26.3,4.7-33.6-6.4c-7.6-11.4-4.5-26,7.1-33.2
		c13.9-8.7,32.4-1.5,36.4,14.2c0.2,0.9,0.5,1.8,0.7,2.7c0,2.2,0,4.4,0,6.6c-0.5,1.6-0.8,3.2-1.5,4.7c-1,2.2-0.5,3.8,1.1,5.4
		c18.5,18.6,36.9,37.3,55.4,55.9c0.9,0.9,2.5,1.6,3.7,1.6c12,0.1,24.1,0,36.1,0.1c2.1,0,3-0.8,3.5-2.7c1.2-4.5,3.5-8.2,7.1-11.3
		c0.6-0.5,1-1.2,2-2.5c-2-1.7-4.1-3.2-5.8-5C173.2,344.2,168.8,339.3,164.3,334.4z M34.3,298.7c-0.2,10.5,7.3,17.8,17.3,17.9
		c10.9,0.2,18.5-7.9,18.8-17.2c0.2-9.4-8.4-18-18-18C42.3,281.4,34.3,289.1,34.3,298.7z M180.2,374.1c0,10.2,7.2,17.5,17.2,17.6
		c10.2,0.1,18.3-8.4,18.1-17.9c-0.2-9.1-6.5-17.2-18.1-17.4C186.5,356.2,179.8,365.4,180.2,374.1z"/>
	<path class="st2" d="M224.3,37.9c-1.5,1.6-2.9,3.3-4.4,4.9c-1.1,0.5-2.2,0.8-3.2,1.4c-8.7,5.4-20.3,4.8-28.3-1.8
		c-1.7-1.4-2.7-1.3-4.2,0.2c-15.4,15.5-30.9,30.9-46.3,46.4c-4.4,4.4-8.5,8.9-12.8,13.4c-4.1-4.5-4.2-4.5-0.3-8.4
		c14.2-14.5,28.4-28.9,42.6-43.4c4.3-4.4,8.7-8.8,12.9-13.4c0.9-1,1.2-3.1,0.8-4.3c-4.3-11.5-0.3-24,9.6-29.5
		c11.4-6.3,24.5-4,32.2,6.3c5.6,7.4,6.7,15.8,2.9,24.5C225.2,35.5,224.8,36.7,224.3,37.9z M203.3,6.4c-9.2-0.9-17.9,7.4-17.8,17
		c0.1,11.1,8.5,18,17.8,17.9c10.6-0.1,18.1-7,18.2-17C221.5,15.1,213.1,5.3,203.3,6.4z"/>
	<path class="st1" d="M48,241.1c-1-0.4-1.8-0.6-2.5-0.9c-14.3-7-28.6-14-42.9-21.1c-1-0.5-2.2-2.3-2.1-3.3c0.2-2.5-1.9-5.9,1.3-7.5
		c15.1-7.5,30.3-14.8,46.2-22.5c0,3.4,0.2,6.3-0.1,9.2c-0.1,0.9-1.5,1.9-2.6,2.4c-9.8,4.7-19.7,9.4-29.5,14c-0.9,0.4-1.8,1-3.2,1.7
		c3,1.6,5.6,3.1,8.2,4.4c7.8,3.9,15.7,7.8,23.6,11.5c2.8,1.3,4.2,2.7,3.7,5.9C47.7,236.8,48,238.8,48,241.1z"/>
	<path class="st1" d="M137.2,213.2c-2.2-1.3-3.6-2.2-5.1-2.9c-8.2-4-16.3-8.2-24.6-11.8c-3.7-1.6-5.2-3.6-4.6-7.4c0.2-1.4,0-3,0-5
		c1.9,0.8,3.1,1.2,4.2,1.8c13.1,6.4,26.2,12.9,39.4,19.3c2.4,1.2,3.4,2.6,3.1,5.2c-0.3,2.8,0.6,5.5-3.2,7.4
		c-13.3,6.4-26.3,13.2-39.5,19.9c-1.2,0.6-2.3,1.1-4.5,2.1c0-3.6-0.3-6.5,0.1-9.3c0.1-1,1.7-2.1,2.8-2.7c9.2-4.7,18.4-9.3,27.6-14
		C134.2,215,135.3,214.3,137.2,213.2z"/>
</g>
<g id="Text">
	<g id="claim">
		<path class="st2" d="M293.4,274.3c-3,0-5.4-0.5-7.4-1.4c-2-1-3.4-2.2-4.4-3.8c-1-1.6-1.4-3.3-1.4-5.2c0-3.5,1.4-6.1,4.2-7.9
			c2.8-1.8,6.5-2.7,11.2-2.7h10.3v-0.7c0-6-3-8.9-9-8.9c-2.4,0-4.4,0.5-6.1,1.4s-2.7,2.5-3.1,4.5h-6.5c0.3-2.3,1.1-4.3,2.5-5.9
			c1.4-1.7,3.3-2.9,5.5-3.8c2.3-0.9,4.8-1.3,7.6-1.3c5.3,0,9.2,1.3,11.6,3.8c2.4,2.5,3.7,5.9,3.7,10.1v21h-5.4l-0.5-5.3h-0.5
			c-1.1,1.6-2.6,3.1-4.4,4.3C299.5,273.7,296.9,274.3,293.4,274.3z M294.6,269.2c2.4,0,4.5-0.5,6.1-1.6c1.7-1.1,3-2.5,3.8-4.2
			c0.9-1.7,1.3-3.6,1.3-5.7h-9.7c-3.4,0-5.8,0.5-7.2,1.6c-1.4,1.1-2.1,2.5-2.1,4.2c0,1.8,0.7,3.2,2,4.2
			C290.2,268.7,292.1,269.2,294.6,269.2z"/>
		<path class="st2" d="M329.4,259.3v-5h24.9v5H329.4z"/>
		<path class="st2" d="M373.8,273.5l-8.3-34.1h6.3l5.4,25.5l6.4-25.5h7.1l6.4,25.5l5.4-25.5h6.3l-8.4,34.1h-6.5l-6.8-26.5l-6.8,26.5
			H373.8z"/>
		<path class="st2" d="M432.7,274.3c-3.5,0-6.6-0.7-9.3-2.2c-2.7-1.5-4.8-3.6-6.4-6.3c-1.6-2.7-2.3-5.8-2.3-9.4
			c0-3.6,0.8-6.7,2.3-9.4c1.5-2.7,3.7-4.8,6.4-6.3c2.7-1.5,5.9-2.2,9.5-2.2s6.7,0.7,9.3,2.2c2.6,1.5,4.5,3.5,5.9,5.9
			c1.4,2.4,2,5,2,7.8c0,0.5,0,1,0,1.5c0,0.5,0,1.1,0,1.7h-29c0.2,2.5,0.8,4.6,1.9,6.3c1.1,1.7,2.6,2.9,4.3,3.7
			c1.7,0.8,3.6,1.2,5.5,1.2c2.8,0,4.9-0.5,6.5-1.6c1.6-1.1,2.7-2.5,3.5-4.4h6.3c-0.9,3.2-2.6,5.8-5.4,8
			C440.9,273.2,437.3,274.3,432.7,274.3z M432.7,243.7c-2.9,0-5.5,0.8-7.7,2.4c-2.2,1.6-3.5,3.9-4,6.7h22.8
			c-0.2-2.8-1.3-5.1-3.4-6.7C438.4,244.5,435.8,243.7,432.7,243.7z"/>
		<path class="st2" d="M478.8,274.3c-2.9,0-5.3-0.5-7.3-1.6c-2-1.1-3.5-2.6-4.4-4.4h-0.5l-0.7,5.2h-5.2V224h6.3v20.3
			c1-1.5,2.5-2.8,4.5-4c2-1.1,4.4-1.7,7.2-1.7c3.2,0,6.1,0.7,8.5,2.1c2.5,1.4,4.4,3.4,5.8,6.1c1.4,2.7,2.1,5.9,2.1,9.7
			c0,3.9-0.7,7.1-2.1,9.8c-1.4,2.7-3.4,4.7-5.8,6.1C484.8,273.6,482,274.3,478.8,274.3z M478,268.8c3.2,0,5.8-1,7.8-3.1
			c2-2,3.1-5.1,3.1-9.3c0-4.2-1-7.3-3.1-9.3c-2-2-4.6-3.1-7.8-3.1c-3.2,0-5.8,1-7.8,3.1c-2.1,2-3.1,5.1-3.1,9.3c0,4.2,1,7.3,3.1,9.3
			C472.2,267.8,474.9,268.8,478,268.8z"/>
		<path class="st2" d="M510.4,259.3v-5h24.9v5H510.4z"/>
		<path class="st2" d="M568.4,274.3c-4.8,0-8.6-1-11.6-3.1c-2.9-2-4.6-4.8-4.9-8.4h6.6c0.3,1.9,1.3,3.4,3.1,4.6
			c1.7,1.2,4.1,1.8,7,1.8c2.8,0,4.9-0.5,6.3-1.6c1.4-1.1,2.1-2.4,2.1-3.8c0-1.9-0.8-3.2-2.5-4c-1.7-0.7-4.1-1.2-7.5-1.6
			c-4-0.4-7.3-1.4-9.9-3c-2.6-1.6-3.9-3.9-3.9-7c0-2.8,1.3-5.1,3.8-6.9c2.6-1.8,6.1-2.8,10.5-2.8c4.4,0,7.8,0.9,10.3,2.7
			c2.5,1.8,3.9,4.4,4.3,7.7h-6.3c-0.2-1.6-1-3-2.6-4c-1.6-1-3.6-1.5-5.9-1.5c-2.5,0-4.4,0.4-5.7,1.3c-1.4,0.8-2,2-2,3.3
			c0,1.4,0.8,2.5,2.3,3.4c1.5,0.9,4,1.5,7.3,1.8c2.6,0.3,5,0.7,7.2,1.4c2.2,0.6,3.9,1.6,5.2,3c1.3,1.4,1.9,3.3,1.9,5.8
			c0,2.1-0.6,3.9-1.8,5.5c-1.3,1.6-3.1,2.9-5.3,3.9C574,273.8,571.4,274.3,568.4,274.3z"/>
		<path class="st2" d="M613.7,274.3c-3.5,0-6.6-0.7-9.3-2.2c-2.7-1.5-4.8-3.6-6.4-6.3c-1.6-2.7-2.3-5.8-2.3-9.4
			c0-3.6,0.8-6.7,2.3-9.4c1.5-2.7,3.7-4.8,6.4-6.3c2.7-1.5,5.9-2.2,9.5-2.2s6.7,0.7,9.3,2.2c2.6,1.5,4.5,3.5,5.9,5.9
			c1.4,2.4,2,5,2,7.8c0,0.5,0,1,0,1.5c0,0.5,0,1.1,0,1.7h-29c0.2,2.5,0.8,4.6,1.9,6.3c1.1,1.7,2.6,2.9,4.3,3.7
			c1.7,0.8,3.6,1.2,5.5,1.2c2.8,0,4.9-0.5,6.5-1.6c1.6-1.1,2.7-2.5,3.5-4.4h6.3c-0.9,3.2-2.6,5.8-5.4,8
			C621.9,273.2,618.2,274.3,613.7,274.3z M613.7,243.7c-2.9,0-5.5,0.8-7.7,2.4c-2.2,1.6-3.5,3.9-4,6.7h22.8
			c-0.2-2.8-1.3-5.1-3.4-6.7C619.4,244.5,616.8,243.7,613.7,243.7z"/>
		<path class="st2" d="M642.2,273.5v-5h9.6V246c0-1.1-0.6-1.7-1.8-1.7h-6.8v-5h9.1c1.7,0,3,0.4,4,1.2c1,0.8,1.5,2,1.5,3.6v1.4h0.3
			c0.6-2.3,1.7-4.1,3.4-5.3c1.7-1.2,4-1.9,7-1.9h6.9v6.1h-7.8c-3.1,0-5.4,0.9-7.1,2.8c-1.7,1.9-2.5,4.2-2.5,7.1v14h11.8v5H642.2z"/>
		<path class="st2" d="M700.1,273.5l-16.4-34.1h7.2l12.9,27.8l13-27.8h7.2l-16.5,34.1H700.1z"/>
		<path class="st2" d="M733.9,273.5v-5h11.9V246c0-1.1-0.6-1.7-1.9-1.7h-8.7v-5h10.3c4.5,0,6.7,2,6.7,6.1v23h11.9v5H733.9z
			 M748.5,233.3c-1.5,0-2.8-0.5-3.8-1.4c-1-0.9-1.5-2-1.5-3.3c0-1.3,0.5-2.4,1.5-3.3c1-0.9,2.3-1.3,3.8-1.3c1.5,0,2.7,0.4,3.7,1.3
			c1,0.9,1.5,2,1.5,3.3c0,1.3-0.5,2.4-1.5,3.3C751.2,232.9,750,233.3,748.5,233.3z"/>
		<path class="st2" d="M794.8,274.3c-3.4,0-6.4-0.7-9-2.1c-2.6-1.4-4.7-3.5-6.3-6.2c-1.6-2.7-2.3-5.9-2.3-9.6c0-3.7,0.8-6.9,2.3-9.6
			c1.6-2.7,3.7-4.7,6.4-6.2c2.7-1.4,5.7-2.1,8.9-2.1c4.6,0,8.3,1.1,11.1,3.2c2.8,2.1,4.5,4.9,5.3,8.5h-6.5c-0.6-1.9-1.8-3.4-3.5-4.5
			c-1.7-1.1-3.9-1.7-6.5-1.7c-1.9,0-3.7,0.5-5.4,1.4c-1.7,0.9-3.1,2.3-4.1,4.1c-1.1,1.8-1.6,4.2-1.6,6.9c0,2.8,0.5,5.1,1.6,7
			s2.4,3.2,4.1,4.2c1.7,0.9,3.5,1.4,5.4,1.4c2.8,0,5-0.6,6.6-1.7c1.6-1.1,2.8-2.7,3.4-4.5h6.5c-1,3.6-2.8,6.5-5.6,8.5
			C802.8,273.3,799.2,274.3,794.8,274.3z"/>
		<path class="st2" d="M839.8,274.3c-3.5,0-6.6-0.7-9.3-2.2c-2.7-1.5-4.8-3.6-6.4-6.3c-1.6-2.7-2.3-5.8-2.3-9.4
			c0-3.6,0.8-6.7,2.3-9.4c1.5-2.7,3.7-4.8,6.4-6.3c2.7-1.5,5.9-2.2,9.5-2.2s6.7,0.7,9.3,2.2c2.6,1.5,4.5,3.5,5.9,5.9
			c1.4,2.4,2,5,2,7.8c0,0.5,0,1,0,1.5c0,0.5,0,1.1,0,1.7h-29c0.2,2.5,0.8,4.6,1.9,6.3c1.1,1.7,2.6,2.9,4.3,3.7
			c1.7,0.8,3.6,1.2,5.5,1.2c2.8,0,4.9-0.5,6.5-1.6c1.6-1.1,2.7-2.5,3.5-4.4h6.3c-0.9,3.2-2.6,5.8-5.4,8
			C848.1,273.2,844.4,274.3,839.8,274.3z M839.8,243.7c-2.9,0-5.5,0.8-7.7,2.4c-2.2,1.6-3.5,3.9-4,6.7h22.8
			c-0.2-2.8-1.3-5.1-3.4-6.7C845.5,244.5,843,243.7,839.8,243.7z"/>
	</g>
	<g id="name">
		<path class="st2" d="M284,204.9v-81.3h18.6c4.4,0,8.1,1.1,11,3.3c2.9,2.2,5.1,5.1,6.5,8.8c1.4,3.7,2.1,7.8,2.1,12.5
			c0,5.3-0.9,9.9-2.8,14c-1.9,4.1-4.7,7-8.6,8.9l11.9,33.9h-10l-10.9-32.2h-9.3v32.2H284z M292.6,161.6h9.5c3.9,0,6.7-1.2,8.6-3.7
			c1.8-2.5,2.7-5.7,2.7-9.8c0-4.1-0.9-7.4-2.7-9.8c-1.8-2.4-4.7-3.7-8.7-3.7h-9.4V161.6z"/>
		<path class="st2" d="M328.8,204.9l16.9-81.3h10.2l16.9,81.3h-9.3l-3.8-19.5h-17.8l-3.8,19.5H328.8z M350.6,141.1l-6.7,34.5h13.9
			l-6.7-34.5H350.6z"/>
		<path class="st2" d="M381.7,204.9v-81.3h8.6v70.2h28v11H381.7z"/>
		<path class="st2" d="M429.5,204.9v-81.3h19.2c4.3,0,7.9,1.1,10.7,3.2c2.8,2.1,4.9,5,6.2,8.8c1.4,3.7,2,8,2,12.8
			c0,4.8-0.7,9.1-2,12.8c-1.4,3.7-3.4,6.6-6.2,8.8c-2.8,2.1-6.4,3.2-10.7,3.2h-10.6v31.8H429.5z M438.1,162.1h10.2
			c3.7,0,6.4-1.2,8.1-3.7c1.7-2.5,2.6-5.8,2.6-10c0-4.1-0.9-7.4-2.6-9.9c-1.7-2.5-4.4-3.8-8.1-3.8h-10.2V162.1z"/>
		<path class="st2" d="M475.7,204.9v-81.3h8.6v33.7h24.8v-33.7h8.6v81.3h-8.6v-36.3h-24.8v36.3H475.7z"/>
		<path class="st2" d="M576.2,204.9v-81.3h36.2v11h-27.6v23.7H610v10.9h-25.2v24.6h27.6v11H576.2z"/>
		<path class="st2" d="M622.5,204.9v-81.3h8.4l23.8,59.6v-59.6h8.2v81.3h-8.4l-23.7-59.6v59.6H622.5z"/>
		<path class="st2" d="M690.6,206.3c-4.2,0-7.9-1.7-11.1-5.2c-3.2-3.4-5.7-8.3-7.5-14.6c-1.8-6.3-2.7-13.7-2.7-22.3
			c0-8.4,0.9-15.8,2.7-22.1c1.8-6.3,4.3-11.2,7.7-14.7c3.3-3.5,7.3-5.3,12-5.3c5.6,0,10.1,2.2,13.6,6.6c3.4,4.4,5.5,10.6,6.3,18.7
			h-9.3c-0.5-4.2-1.7-7.5-3.5-10c-1.8-2.5-4.1-3.7-7-3.7c-4.4,0-7.7,2.7-10.1,8.1c-2.3,5.4-3.5,12.8-3.5,22.3
			c0,9.8,1.2,17.4,3.7,22.6c2.5,5.2,5.7,7.8,9.6,7.8c2.6,0,4.8-1.1,6.6-3.4c1.7-2.2,3.1-5.1,4-8.6c0.9-3.5,1.5-7.3,1.7-11.2h-11.9
			v-10.2h20.6v43.7h-7.9l-0.6-10.9h-0.5c-1.1,3.6-2.6,6.5-4.5,8.8C696.8,205.2,694.1,206.3,690.6,206.3z"/>
		<path class="st2" d="M722.1,204.9v-81.3h36.2v11h-27.6v23.7h25.2v10.9h-25.2v24.6h27.6v11H722.1z"/>
		<path class="st2" d="M770.8,204.9v-81.3h8.6v70.2h28v11H770.8z"/>
		<path class="st2" d="M837.8,206.3c-4,0-7.5-1-10.5-3.1s-5.3-5.1-7.1-8.9c-1.7-3.9-2.6-8.5-2.6-13.8h9.1c0.1,4.1,1,7.6,3,10.5
			c1.9,2.9,4.6,4.4,8.1,4.4c3.2,0,5.7-1.1,7.5-3.2c1.8-2.1,2.7-4.9,2.7-8.3c0-2.9-0.5-5.2-1.6-7.1c-1.1-1.9-2.7-3.6-4.9-5.1
			c-2.2-1.5-5.1-3.1-8.6-4.7c-4.7-2.2-8.2-5.2-10.4-9c-2.2-3.8-3.3-8.5-3.3-14.1c0-6.4,1.6-11.6,4.9-15.6c3.2-3.9,7.7-5.9,13.4-5.9
			c5.5,0,9.9,2,13.3,6.1c3.3,4.1,5.1,9.7,5.2,16.9h-9.2c0-1.9-0.4-3.8-1.1-5.6c-0.8-1.8-1.8-3.3-3.2-4.5c-1.4-1.2-3.1-1.8-5.2-1.8
			c-2.5-0.1-4.7,0.8-6.4,2.6c-1.7,1.8-2.6,4.3-2.6,7.4c0,3.8,1.1,6.8,3.2,8.9c2.1,2.1,5.5,4.3,10.3,6.6c3,1.4,5.6,3.1,7.9,5
			s4.1,4.5,5.4,7.5c1.3,3.1,2,6.9,2,11.7c0,4.3-0.8,8.3-2.3,11.8c-1.5,3.5-3.7,6.3-6.5,8.4C845.2,205.3,841.7,206.3,837.8,206.3z"/>
	</g>
</g>
</svg>
