<?xml version="1.0" encoding="utf-8"?>
<!-- Generator: Adobe Illustrator 25.1.0, SVG Export Plug-In . SVG Version: 6.00 Build 0)  -->
<svg version="1.1" xmlns="http://www.w3.org/2000/svg" xmlns:xlink="http://www.w3.org/1999/xlink" x="0px" y="0px"
	 viewBox="0 0 180 180" style="enable-background:new 0 0 180 180;" xml:space="preserve">
<style type="text/css">
	.st0{display:none;}
	.st1{display:inline;fill:#1E662A;}
	.st2{display:none;fill:#681D21;}
	.st3{display:inline;fill:#681D21;}
	.st4{fill:#FBFAFA;}
	.st5{fill:#262625;}
</style>
<g id="BG" class="st0">
	<rect x="-66" y="-45" class="st1" width="350" height="340"/>
</g>
<g id="Eule_1_">
	<path id="Background" class="st2" d="M89.5,189.92c-31.97,0-63.95-0.05-95.92,0.08c-2.98,0.01-3.58-0.6-3.58-3.58
		c0.11-64.28,0.11-128.56,0-192.84C-10-9.4-9.4-10-6.42-10c64.28,0.11,128.56,0.11,192.84,0C189.4-10,190-9.4,190-6.42
		c-0.11,64.28-0.11,128.56,0,192.84c0.01,2.98-0.6,3.59-3.58,3.58C154.11,189.86,121.81,189.92,89.5,189.92z M84.01,173.94
		c0,0-0.28-0.37-0.28-0.37c0.31-1.45,0.56-2.92,0.94-4.35c5.84-21.92,4.96-43.16-6.7-63.19c-7.52-12.92-17.96-23.01-30.58-30.93
		c-1.64-1.03-2.88-1.38-4.23,0.35c-1.69,2.16,0.6,2.38,1.51,3.22c0.85,0.79,1.87,1.4,2.75,2.15c15.91,13.44,24.91,30.15,24.79,51.6
		c-1.55-0.56-1.19-1.57-1.41-2.28c-5.5-18.1-14.53-33.81-30.07-45.29c-2.47-1.83-3.58-1.93-5.13,0.96
		c-5.81,10.86-8.06,22.34-4.9,34.23c5.38,20.22,15.55,38.4,25.28,56.74c0.95,1.79,2.3,2.03,4.09,2.03
		c17.82-0.04,35.63-0.04,53.45-0.02c1.7,0,3.25,0.05,4.22-1.81c10.4-19.86,21.54-39.46,26.97-61.42
		c3.26-13.18,3.04-26.39-4.56-38.57c-1.84-2.94-3.29-3.27-6.22-1.29c-16.05,10.81-24.89,26.38-29.92,44.53
		c-1.12,4.05-1.96,8.17-2.93,12.26c-2.56-24.78,4.5-45.85,25.17-60.47c13.13-9.29,17.52-21.74,16.28-36.71
		c-0.97-11.72-5.73-23.23-0.28-35.57c-5.62,1.58-9.36,4.45-13.43,6.64c-3.9,2.1-7.78,3.58-12.36,2.37
		c-16.4-4.31-32.91-4.65-49.33-0.38C61.64,9.78,57.06,8.64,52.4,5.99c-3.82-2.17-7.4-4.89-12.69-6.12
		c4.76,11.39,2.07,21.83-1.05,32.49c-4.81,16.42-0.13,28.13,13.87,38.12c5,3.57,9.94,7.32,14.43,11.5
		c19.1,17.78,30.68,38.81,27.01,65.9C92.69,157.27,90.2,166.35,84.01,173.94z"/>
	<g id="Gesicht" class="st0">
		<path class="st3" d="M61.58,18.72c9.49-5.39,21.2-1.29,29.28,10.57c4.04-6.26,9.06-11.16,16.66-12.3
			c3.16-0.47,6.41-1.14,9.45,0.68c-0.52,2.02-1.96,1.39-2.92,1.34c-8.39-0.41-13.92,4.02-17.53,10.91
			c-3.69,7.03-3.64,14.37,0.17,21.48c0.49,0.92,0.97,2.63,2.33,2.12c4.67-1.75,8.74,0.73,13.06,1.44c4.29,0.71,8.51,0.01,13.67-2.21
			c-5.77,5.25-12.36,5.61-25.31,2.24c-0.52,5.3-5.15,7.72-8.01,11.38c-0.56,0.71-1.61,1.05-2.21,0.4c-2.83-3.02-5.63-6.07-8.22-9.29
			c-1.03-1.28,0.27-2.46,1.11-3.47c6.4-7.76,6.47-16.23,1.9-24.61c-4.48-8.22-11.66-11.99-21.22-10.39
			c-0.64,0.11-1.31,0.01-1.96-0.02C61.73,19,61.66,18.82,61.58,18.72z"/>
		<path class="st3" d="M76,55.46c-4.65,1.65-9.4,1.07-14.19-0.14c4.69-0.38,9.37-0.75,14.06-1.13C75.91,54.61,75.95,55.04,76,55.46z
			"/>
	</g>
	<path id="Korpus" class="st4" d="M84.01,173.94c6.18-7.59,8.68-16.67,9.95-26.05c3.67-27.09-7.91-48.12-27.01-65.9
		c-4.49-4.18-9.43-7.93-14.43-11.5c-14-10-18.68-21.7-13.87-38.12c3.12-10.67,5.81-21.1,1.05-32.49c5.28,1.22,8.87,3.95,12.69,6.12
		c4.66,2.65,9.25,3.78,14.74,2.36c16.42-4.26,32.93-3.92,49.33,0.38c4.58,1.2,8.46-0.27,12.36-2.37c4.07-2.19,7.81-5.06,13.43-6.64
		c-5.45,12.33-0.69,23.85,0.28,35.57c1.24,14.97-3.15,27.42-16.28,36.71c-20.67,14.62-27.73,35.69-25.17,60.47
		c0.97-4.09,1.81-8.21,2.93-12.26c5.03-18.15,13.86-33.72,29.92-44.53c2.94-1.98,4.39-1.65,6.22,1.29
		c7.6,12.18,7.82,25.39,4.56,38.57c-5.43,21.96-16.57,41.56-26.97,61.42c-0.97,1.86-2.52,1.81-4.22,1.81
		c-17.82-0.02-35.63-0.03-53.45,0.02c-1.78,0-3.13-0.23-4.09-2.03c-9.73-18.34-19.91-36.52-25.28-56.74
		c-3.16-11.89-0.92-23.38,4.9-34.23c1.55-2.89,2.66-2.78,5.13-0.96c15.54,11.48,24.56,27.19,30.07,45.29
		c0.22,0.71-0.14,1.72,1.41,2.28c0.12-21.46-8.89-38.17-24.79-51.6c-0.89-0.75-1.9-1.36-2.75-2.15c-0.91-0.84-3.2-1.06-1.51-3.22
		c1.35-1.73,2.59-1.38,4.23-0.35c12.62,7.92,23.06,18.01,30.58,30.93c11.66,20.03,12.54,41.26,6.7,63.19
		c-0.38,1.43-0.63,2.9-0.94,4.36c-0.48,0.19-0.8,0.65-0.38,0.96C83.87,174.92,83.99,174.37,84.01,173.94z M61.58,18.72
		c0.08,0.1,0.15,0.28,0.24,0.28c0.65,0.03,1.33,0.12,1.96,0.02C73.34,17.42,80.52,21.2,85,29.41c4.57,8.38,4.5,16.85-1.9,24.61
		c-0.84,1.02-2.14,2.19-1.11,3.47c2.59,3.22,5.39,6.27,8.22,9.29c0.61,0.65,1.66,0.31,2.21-0.4c2.87-3.67,7.5-6.08,8.01-11.38
		c12.95,3.36,19.54,3.01,25.31-2.24c-5.17,2.22-9.38,2.92-13.67,2.21c-4.33-0.71-8.39-3.19-13.06-1.44
		c-1.36,0.51-1.83-1.2-2.33-2.12c-3.81-7.11-3.86-14.45-0.17-21.48c3.62-6.89,9.15-11.31,17.53-10.91c0.96,0.05,2.4,0.67,2.92-1.34
		c-3.03-1.82-6.28-1.15-9.45-0.68c-7.6,1.14-12.62,6.04-16.66,12.3C82.78,17.44,71.07,13.33,61.58,18.72z M66.6,27.52
		c-6.46-0.06-10.32,4.07-10.42,11.15c-0.1,7.16,3.56,11.37,10.03,11.52c6.6,0.15,10.53-3.85,10.67-10.87
		C77.02,31.92,73.24,27.58,66.6,27.52z M121.25,39.11c0.03-7.75-3.46-11.67-10.3-11.59c-6.56,0.08-10.11,4.07-10.12,11.38
		c-0.01,7.33,3.52,11.26,10.15,11.32C117.64,50.27,121.22,46.4,121.25,39.11z M76,55.46c-0.04-0.42-0.09-0.84-0.13-1.26
		c-4.69,0.38-9.37,0.75-14.06,1.13C66.6,56.53,71.34,57.11,76,55.46z"/>
	<g id="Augen">
		<path id="Pupille-links" class="st4" d="M69.15,43.32c0.17,2.75-1.24,3.9-3.87,3.84c-2.88-0.06-3.45-1.83-3.43-4.3
			c0.02-2.69,1.23-4.01,3.87-3.9C68.48,39.08,69.34,40.82,69.15,43.32z"/>
		<path id="Auge-links" class="st5" d="M66.6,27.52c6.65,0.06,10.43,4.41,10.27,11.8c-0.14,7.02-4.07,11.01-10.67,10.87
			c-6.46-0.15-10.13-4.35-10.03-11.52C56.27,31.59,60.14,27.45,66.6,27.52z M69.15,43.32c0.19-2.5-0.67-4.24-3.43-4.35
			c-2.64-0.11-3.85,1.2-3.87,3.9c-0.01,2.47,0.55,4.24,3.43,4.3C67.91,47.22,69.32,46.07,69.15,43.32z"/>
		<path id="Pupille-rechts" class="st4" d="M113.97,43.14c-0.06,2.24-0.98,3.93-3.73,4.02c-2.71,0.09-4-1.36-4.02-3.91
			c-0.02-2.41,0.97-4.23,3.71-4.3C112.56,38.9,113.85,40.33,113.97,43.14z"/>
		<path id="Auge-rechts" class="st5" d="M121.25,39.11c-0.03,7.3-3.6,11.16-10.27,11.1c-6.63-0.06-10.15-3.99-10.15-11.32
			c0.01-7.3,3.55-11.29,10.12-11.38C117.79,27.43,121.28,31.36,121.25,39.11z M113.97,43.14c-0.12-2.81-1.41-4.24-4.04-4.18
			c-2.74,0.07-3.73,1.88-3.71,4.3c0.02,2.55,1.32,4,4.02,3.91C112.99,47.07,113.91,45.38,113.97,43.14z"/>
	</g>
</g>
</svg>
